# xmcd
#
# Track frame offsets: 
#        150
#        12712
#        33936
#        50375
#        68337
#        77481
#        90824
#        105167
#        126764
#        140861
#
# Disc length: 2063 seconds
#
# Revision: 0
# Processed by: cddbd v1.5.2PL0 Copyright (c) Steve Scherf et al.
# Submitted via: ExactAudioCopy v1.3
#
DISCID=70080d0a
DTITLE=Open Highway - Keep Me Faithful
DYEAR=1900
DGENRE=Bluegrass
TTITLE0=Have You Cried Out to Jesus
TTITLE1=Keep Me Faithful
TTITLE2=Jesus Hold My Hand
TTITLE3=Heed His Call
TTITLE4=Peter On The Water
TTITLE5=Nancy Jane
TTITLE6=Bible For a Roadmap
TTITLE7=Outside Lookin In
TTITLE8=Where Friend Will Meet Again
TTITLE9=Dust On The Bible
EXTD=
EXTT0=
EXTT1=
EXTT2=
EXTT3=
EXTT4=
EXTT5=
EXTT6=
EXTT7=
EXTT8=
EXTT9=
PLAYORDER=
